<?xml version="1.0" encoding="UTF-8" standalone="no"?>
<svg
   id="Layer_1"
   data-name="Layer 1"
   viewBox="0 0 2000 2000"
   version="1.1"
   sodipodi:docname="waxing-gibbous.svg"
   inkscape:version="1.3.2 (091e20e, 2023-11-25, custom)"
   xmlns:inkscape="http://www.inkscape.org/namespaces/inkscape"
   xmlns:sodipodi="http://sodipodi.sourceforge.net/DTD/sodipodi-0.dtd"
   xmlns="http://www.w3.org/2000/svg"
   xmlns:svg="http://www.w3.org/2000/svg"
   xmlns:rdf="http://www.w3.org/1999/02/22-rdf-syntax-ns#"
   xmlns:cc="http://creativecommons.org/ns#"
   xmlns:dc="http://purl.org/dc/elements/1.1/">
  <sodipodi:namedview
     id="namedview13"
     pagecolor="#ffffff"
     bordercolor="#666666"
     borderopacity="1.0"
     inkscape:showpageshadow="2"
     inkscape:pageopacity="0.0"
     inkscape:pagecheckerboard="0"
     inkscape:deskcolor="#d1d1d1"
     inkscape:zoom="0.4485"
     inkscape:cx="1000"
     inkscape:cy="1000"
     inkscape:window-width="1920"
     inkscape:window-height="1166"
     inkscape:window-x="-11"
     inkscape:window-y="-11"
     inkscape:window-maximized="1"
     inkscape:current-layer="Layer_1" />
  <defs
     id="defs1">
    <style
       id="style1">.cls-1{fill:#e6e7e8;}.cls-2{fill:#bcbec0;}.cls-3{fill:#231f20;opacity:0.9;}</style>
  </defs>
  <title
     id="title1">0.7</title>
  <circle
     class="cls-1"
     cx="-1000"
     cy="1000"
     r="1000"
     id="circle1"
     transform="scale(-1,1)" />
  <ellipse
     class="cls-2"
     cx="-1366.6792"
     cy="-462.87717"
     rx="103.01"
     ry="68.110001"
     transform="matrix(-0.8660254,-0.5,-0.5,0.8660254,0,0)"
     id="ellipse1" />
  <ellipse
     class="cls-2"
     cx="-1776.7483"
     cy="975.87866"
     rx="87.769997"
     ry="132.74001"
     transform="matrix(-0.99828099,-0.05860946,-0.05860946,0.99828099,0,0)"
     id="ellipse2" />
  <ellipse
     class="cls-2"
     cx="-1187.3693"
     cy="1297.6917"
     rx="119.01"
     ry="132.74001"
     transform="matrix(-0.99828099,-0.05860946,-0.05860946,0.99828099,0,0)"
     id="ellipse3" />
  <ellipse
     class="cls-2"
     cx="-1199.36"
     cy="61.736622"
     rx="246.07001"
     ry="119.01"
     transform="matrix(-0.4486952,-0.89368485,-0.89368485,0.4486952,0,0)"
     id="ellipse4" />
  <ellipse
     class="cls-2"
     cx="-1018.5628"
     cy="-1095.5172"
     rx="132.74001"
     ry="94.199997"
     transform="matrix(-0.25628937,-0.9666001,-0.9666001,0.25628937,0,0)"
     id="ellipse5" />
  <ellipse
     class="cls-2"
     cx="-950.50403"
     cy="237.04182"
     rx="63.150002"
     ry="90.279999"
     transform="matrix(-0.92984072,-0.36796227,-0.36796227,0.92984072,0,0)"
     id="ellipse6" />
  <ellipse
     class="cls-2"
     cx="-1528.1624"
     cy="1067.1698"
     rx="99.510002"
     ry="36.549999"
     transform="matrix(-0.78401858,-0.62073735,-0.62073735,0.78401858,0,0)"
     id="ellipse7" />
  <ellipse
     class="cls-2"
     cx="-1834.0444"
     cy="850.55249"
     rx="28.299999"
     ry="42.799999"
     transform="matrix(-0.97561123,-0.21950567,-0.21950567,0.97561123,0,0)"
     id="ellipse8" />
  <ellipse
     class="cls-2"
     cx="-2186.1545"
     cy="-52.256836"
     rx="28.299999"
     ry="42.799999"
     transform="matrix(-0.5,-0.8660254,-0.8660254,0.5,0,0)"
     id="ellipse9" />
  <ellipse
     class="cls-2"
     cx="-1541.7111"
     cy="503.54868"
     rx="35.893196"
     ry="23.731451"
     transform="matrix(-0.49828388,-0.86701394,-0.86701394,0.49828388,0,0)"
     id="ellipse10"
     style="stroke-width:1.00344" />
  <ellipse
     class="cls-2"
     cx="-1361.427"
     cy="546.23529"
     rx="131.46001"
     ry="48.299999"
     transform="matrix(-0.5,-0.8660254,-0.8660254,0.5,0,0)"
     id="ellipse11" />
  <ellipse
     class="cls-2"
     cx="-1361.4153"
     cy="-1263.1246"
     rx="42.799999"
     ry="21.82"
     transform="matrix(-0.5,-0.8660254,-0.8660254,0.5,0,0)"
     id="ellipse12" />
  <path
     class="cls-2"
     d="m 170.08,568.19 c 44,30.4 128.72,-16 189.36,-103.64 60.64,-87.64 74.16,-183.33 30.21,-213.73 -11.58,-8 -26,-10.7 -42.08,-8.68 A 1004.52,1004.52 0 0 0 146.65,478.4 c -6.65,40.67 0.64,74.02 23.43,89.79 z"
     id="path12" />
  <path
     class="cls-3"
     d="m 0,1000 c 0,552.28 447.71,1000 1000,1000 v 0 C 948.67,1966.08 841.1,1842.61 747.31,1637.17 640.34,1402.8 600,1115.85 600,1000 600,884.15 640.3,597.2 747.28,362.84 841.11,157.42 948.66,34 1000,0 V 0 C 447.71,0 0,447.71 0,1000 Z"
     id="path13" />
  <metadata
     id="metadata13">
    <rdf:RDF>
      <cc:Work
         rdf:about="">
        <dc:title>0.7</dc:title>
      </cc:Work>
    </rdf:RDF>
  </metadata>
</svg>
